# xmcd
#
# Track frame offsets: 
#        150
#        17038
#        33913
#        40410
#        55026
#        68311
#        75638
#        86165
#        96202
#        108072
#        117906
#        129341
#        143434
#
# Disc length: 1917 seconds
#
# Revision: 0
# Processed by: cddbd v1.5.1PL0 Copyright (c) Steve Scherf et al.
# Submitted via: ExactAudioCopy v0.95a5
#
DISCID=96077b0d
DTITLE=Cafard Monica - Geoffroy Bruneau
DYEAR=2002
DGENRE=Blues
TTITLE0=Fantaisies matinales
TTITLE1=Paul Tron (Père and Fils Café)
TTITLE2=Cafard Monica
TTITLE3=Curriculum vite-fait (1ere part.)
TTITLE4=Songe à la con
TTITLE5=Maghreb Canard Camemberbere
TTITLE6=C'est la vie, c'est comme ça
TTITLE7=Nadine
TTITLE8=Cabaret
TTITLE9=I wish you would
TTITLE10=Give papa one smile
TTITLE11=Fofinha
TTITLE12=Amitiés canines
EXTD=
EXTT0=
EXTT1=
EXTT2=
EXTT3=
EXTT4=
EXTT5=
EXTT6=
EXTT7=
EXTT8=
EXTT9=
EXTT10=
EXTT11=
EXTT12=
PLAYORDER=
